<svg version="1.1" id="logo" xmlns="http://www.w3.org/2000/svg" xmlns:xlink="http://www.w3.org/1999/xlink" x="0px" y="0px"
	 viewBox="0 0 212.6 95.2" style="enable-background:new 0 0 212.6 95.2;" xml:space="preserve">
<style type="text/css">
	.logostroke{fill:#FFFFFF;}
</style>
<g id="XMLID_97_">
	<path id="XMLID_100_" class="logostroke" d="M30.1,0c-6,0-11.3,1.4-15.6,4c-4.3,2.7-7.5,6.6-9.2,11.2c-1.7,4.6-1.3,9,0.9,12.2
		c2.2,3.1,5.8,4.8,10.1,4.8c1.4,0,2.5-1.2,2.5-2.5c0-1.4-1.2-2.6-2.5-2.6c-2.7,0-4.6-0.9-5.9-2.6C9.1,22.6,9,20.1,10.1,17
		c2.5-6.8,9.6-11.9,20-11.9c4.5,0,8.6,2.2,11.5,5.9c3,3.7,4.8,8.6,4.8,14.2s-1.8,10.5-4.8,14.2c-3,3.7-7,5.9-11.5,5.9h-0.2
		c-0.7,0-1.5-0.1-2.4-0.4c-1.8-0.5-3.9-1.2-6-2.2l-3.2-1.3c-3.2-1.4-6.3-2.7-8.9-3.4c-2.7-0.6-5-0.6-6.7,0.5C1.4,39.4,0,41,0,44.2
		c0,3.7,1.9,5.2,3.2,5.7c2,0.9,4.3,0.4,6.4-0.6c2.1-0.9,4-2.4,5.3-3.6l0.6,0.2c0.2,0.1,0.4,0.2,0.6,0.3c4.9,2.1,9.7,4.2,13.8,4.2
		h0.2c5.8,0,11.3-2.8,15.1-7.4c3.8-4.5,6.3-10.9,6.3-17.8S49,12,45.2,7.4C41.4,2.8,35.9,0,30.1,0z M6.7,44.9
		c-0.7,0.2-1.2,0.3-1.4,0.2c-0.1-0.1-0.1-0.4-0.1-1c0-0.5,0-0.9,0.1-1l0.1-0.2c0-0.1,0.2-0.1,0.6-0.2s1.3,0.1,2.6,0.5
		c0.3,0.1,0.6,0.2,0.8,0.3C8.3,44.2,7.3,44.7,6.7,44.9z"/>
	<path id="XMLID_101_" class="logostroke" d="M18.6,40.1c0.9,0,1.6-0.4,2.1-1.1c1.7-2.5,3.1-5.2,4.2-8c2.7-7.2,4.3-11.6,5.3-14.3
		c0.5-1.4,0.8-2.3,1-2.8c0.2-0.5,0.3-0.7,0.3-0.8c0.5-1.4-0.2-2.7-1.6-3.2c-1.4-0.5-2.7,0.2-3.2,1.6l-0.3,0.7
		c-0.2,0.5-0.5,1.4-1,2.8l-1.9,5.4c-0.9,2.3-1.9,5.3-3.2,8.8c-0.9,2.4-2.1,4.6-3.6,6.8c-0.4,0.6-0.5,1.2-0.4,1.9
		C16.4,39.4,17.6,40.1,18.6,40.1z"/>
	<path id="XMLID_102_" class="logostroke" d="M98.9,10.7c0.4,0.1,0.6,0.1,0.9,0.1c1.1,0,2.1-0.6,2.4-1.7l1-2.5c0.5-1.4-0.2-2.7-1.6-3.2
		c-1.4-0.5-2.7,0.1-3.2,1.5l-0.9,2.5C96.8,8.7,97.5,10.2,98.9,10.7z"/>
	<path id="XMLID_105_" class="logostroke" d="M210.9,30.2c-1.4-0.5-2.8,0.1-3.3,1.5c-0.4,1.2-1.7,4.5-4,7.6c-2.3,3.1-5.5,5.9-9.6,5.9
		c-4.1,0-4.8-1.9-4.8-3.9c0-0.8,0.1-1.5,0.4-2.4c0.1-0.2,0.2-0.4,0.2-0.6l0.2-0.7l1.6-4.4l0.1-0.2c0-0.1,0-0.1,0-0.2l5.3-14.7h9.4
		c1.4,0,2.6-1.2,2.6-2.5c0-1.4-1.2-2.6-2.6-2.6h-7.5l3.4-9.5c0.5-1.4-0.1-2.8-1.5-3.3s-2.8,0.2-3.3,1.6L193.5,13h-4.7
		c-1.4,0-2.6,1.2-2.6,2.6c0,1.4,1.2,2.5,2.6,2.5h2.8L185,36.3c-0.2,0.4-0.3,0.9-0.4,1.3c-0.5,1.2-1.1,2.6-2,3.8
		c-1.2,1.6-2.4,3-4.1,3.5c1.1-1.5,1.7-3,1.9-4.7c0.2-2.7-0.9-5.3-2.5-7.6c-1.7-2.4-3.9-4.6-6-6.6c-1.7-1.7-3.3-3.3-4.4-4.8
		c-0.4-0.5-0.6-0.9-0.7-1.3c-0.1-0.4-0.2-0.6-0.1-0.7l0.3-0.7c0.5-1.4-0.2-2.8-1.6-3.3c-1.4-0.5-2.8,0.2-3.3,1.6l-5.1,14.9
		c0,0.1-0.1,0.1-0.1,0.2c0,0.1,0,0.1-0.1,0.1V32c-0.1,0.1-0.1,0.4-0.3,0.9c-0.2,0.5-0.5,1.3-0.9,2.5c-1.1,2.9-3,5.1-5.3,7.1
		c-2.4,2-5.3,3.6-8.4,5.1l4-10.8l6.6-18.2c0.5-1.4-0.2-2.8-1.6-3.3c-1.4-0.5-2.8,0.2-3.3,1.6l-6.6,18.1c-1.1,2.9-3,5.5-5.3,7.4
		c-2.4,2-5.2,3.2-7.6,3.2c-1.2,0-2.7-0.3-3.8-1.7c-0.9-1.3-1.2-3.3-0.7-5.4c0.2-0.4,0.3-0.8,0.5-1.2l1.3-3.6
		c0.1-0.3,0.1-0.5,0.1-0.8l5.2-14.2c0.5-1.4-0.2-2.8-1.6-3.3c-1.4-0.5-2.8,0.2-3.3,1.6l-6.6,18.1c-0.1,0.4-0.2,0.7-0.3,1.1
		c-0.9,2.1-2.4,4.3-4.1,6c-1.5,1.4-3.8,3.2-6.6,3.2c-1.7,0-2.2-0.6-2.6-1.1c-0.5-0.7-0.8-1.7-0.8-3c0-1.2,0.3-2.6,0.8-4l12.2-33.7
		c0.5-1.4-0.1-2.8-1.5-3.3s-2.8,0.2-3.3,1.6l-10.8,29.6c-0.1,0.2-0.2,0.3-0.3,0.5l-2.4,6.7c-0.9,2.2-2.2,3.9-3.5,5S93,45.3,92,45.3
		c-0.5,0-0.8-0.1-0.9-0.2c-0.2-0.1-0.4-0.2-0.4-0.3c-0.4-0.7-0.4-2.2-0.1-3.6c0.1-0.3,0.3-0.6,0.4-0.8l2.4-6.8
		c0.1-0.2,0.1-0.4,0.1-0.7l5.3-14.4c0.5-1.4-0.2-2.7-1.6-3.2c-1.4-0.5-2.7,0.1-3.2,1.5l-8,21.7c-0.2,0.5-0.3,1-0.5,1.5
		c-0.8,1.5-1.8,2.7-2.9,3.6c-1.4,1.2-3,1.7-3.9,1.7c-0.5,0-0.9-0.1-1-0.2c-0.1-0.1-0.2-0.2-0.3-0.3c-0.3-0.4-0.4-1.1-0.4-1.9
		c0-0.8,0.1-1.7,0.5-2.5l7.9-21.8c0.5-1.4-0.1-2.8-1.5-3.3c-1.4-0.5-2.8,0.2-3.3,1.6l-0.9,2.4c-0.1-0.1-0.1-0.1-0.1-0.2l-0.2-0.2
		c-1.7-2.4-4.1-3.7-7.2-3.7c-1.8,0-3.6,0.4-5.4,1.3c-3.7,1.7-7.1,4.8-9.9,8.9c-2.7,4.1-5.1,9.9-4.9,15c0.2,5.2,3.1,10.2,9.2,10.2
		c3.7,0,7.5-1.9,10.9-5c0.2,0.9,0.6,1.7,1.1,2.4c1.2,1.8,3.1,2.7,5.5,2.7c2.9,0,5.4-1.4,7.4-3.2c0.1,0.2,0.2,0.4,0.3,0.6
		c1.2,1.7,3.2,2.7,5.5,2.7c3.1,0,5.8-1.6,7.8-3.6c0.3-0.3,0.5-0.5,0.8-0.8c0.2,0.4,0.4,0.7,0.6,1.1c1.1,1.5,3.1,3.3,6.8,3.3
		c3.6,0,7-1.5,10.2-4.6c0.2-0.2,0.5-0.5,0.7-0.7c1.2,3,4,5.6,9,5.6c2.7,0,5.5-0.9,8-2.4l-0.8,2.2c-3.4,1.5-6.6,3-9.1,4.8
		c-2.7,1.8-4.8,3.9-5.7,6.6c-0.9,2.2-1.2,5.5,0.5,7.8c1.1,1.7,2.8,2.4,4.8,2.4c2.3,0,4.5-1.1,6.3-2.7c1.8-1.6,3.1-3.7,3.9-5.7
		l3.4-9.4c4.2-1.9,8.7-4,12.5-6.6c3.7-2.7,6.9-6,8.6-10.6l0.8-2.2c0,0,0.1-0.1,0.1-0.1l3.2-9.2c1.2,1.4,2.5,2.7,3.9,4l2.5,2.5
		c1.7,1.8,3,3.5,3.9,5.2c0.8,1.7,0.7,3.2-0.4,4.8l-0.3-0.3c-0.1-0.1-0.3-0.2-0.4-0.3c-3.7-3.1-7.3-2.6-9.6-1.2
		c-2.2,1.5-3.4,4.1-2.7,6.3c0.5,1.7,1.7,2.6,2.9,3.1c1.2,0.5,2.4,0.6,3.2,0.6c1.7,0,3.8-0.1,6-1.1c0.8,0.6,1.9,1.1,3.5,1.1
		c3.2,0,6.1-1.7,8.3-4c0.1-0.1,0.1-0.1,0.1-0.2c0.1,0.2,0.2,0.3,0.3,0.5c1.2,1.7,3.5,3.7,8.4,3.7c4.8,0,9.1-2.3,12.8-6.8
		c1.5-1.9,2.8-4,3.7-5.8c0.9-1.8,1.6-3.4,1.9-4.2C213,32.1,212.3,30.7,210.9,30.2z M75.2,31.8c-1.4,4-3.9,7.4-6.4,9.7
		c-2.6,2.4-5.4,3.7-7.5,3.7c-1.3,0-2.3-0.5-3-1.5c-1.2-1.7-1.8-5.2,0.1-10.2c1.4-4,3.8-7.4,6.4-9.8c2.5-2.3,5.2-3.7,7.4-3.7
		c1.3,0,2.3,0.5,3,1.5C76.4,23.3,77,26.9,75.2,31.8z M131.1,61.9c-1.1,3-3.7,5-5.4,5c-0.4,0-0.6-0.1-0.6-0.1
		c-0.2-0.2-0.3-0.6-0.3-1.2c0-0.5,0.1-1.2,0.4-1.8c0.9-2.5,3.8-4.3,7.5-6.3L131.1,61.9z M167.4,45.2c-0.5,0-0.9,0-1-0.1
		c0.2-0.2,0.4-0.4,0.9-0.6c0.8-0.3,1.6-0.1,2.5,0.5C169.1,45.2,168.3,45.2,167.4,45.2z"/>
</g>
<g id="XMLID_1_">
	<path id="XMLID_2_" class="logostroke" d="M8.9,91.4v-0.8l1.1-0.1c0.3,0,0.3-0.1,0.3-0.4v-5H3.5v5c0,0.3,0,0.3,0.3,0.4L5,90.6v0.8H0.9
		v-0.8L2,90.5c0.3,0,0.3-0.1,0.3-0.4V79.5c0-0.3,0-0.3-0.3-0.4L0.9,79v-0.8H5V79l-1.2,0.1c-0.3,0-0.3,0.1-0.3,0.3v4.6h6.8v-4.6
		c0-0.3,0-0.3-0.3-0.4L8.9,79v-0.8H13V79l-1.2,0.1c-0.3,0-0.3,0.1-0.3,0.3v10.6c0,0.3,0,0.3,0.3,0.4l1.2,0.1v0.8H8.9z"/>
	<path id="XMLID_6_" class="logostroke" d="M14.7,86.7c0-2.8,1.4-4.8,4.4-4.8c3,0,4.2,2,4.2,4.7c0,3-1.3,5-4.3,5
		C15.9,91.6,14.7,89.6,14.7,86.7z M22,86.7c0-2.5-0.9-3.7-2.9-3.7c-2,0-3.1,1.3-3.1,3.7s1,3.9,3.1,3.9C21,90.6,22,89.3,22,86.7z"/>
	<path id="XMLID_9_" class="logostroke" d="M33.6,91.4l-2-7.7l-2.2,7.7h-1.5l-2.7-8c-0.1-0.2-0.2-0.3-0.4-0.3l-0.8-0.2l0.2-0.8h3.4v0.8
		L26.4,83l2.3,7.1l2.2-7.8h1.4l2,7.7l2.2-7.1l-1.2-0.1l0.2-0.8h3.3v0.8L38.1,83c-0.3,0.1-0.4,0.1-0.5,0.4c-0.8,2.7-1.7,5.3-2.5,8
		H33.6z"/>
	<path id="XMLID_11_" class="logostroke" d="M50.9,91.4l-0.1-1.2l-0.1,0c-0.9,0.8-1.8,1.5-3.3,1.5c-2.1,0-3.4-1.3-3.4-4.6
		c0-3.5,1.5-5.1,3.8-5.1c1.1,0,2.1,0.4,2.9,0.9v-3.7c0-0.2-0.1-0.3-0.2-0.4l-1.1-0.3l0.1-0.8h2.4v12.4c0,0.3,0,0.3,0.3,0.4l0.9,0.1
		v0.8H50.9z M50.7,84.1C50.1,83.5,49,83,47.9,83c-1.9,0-2.6,1.6-2.6,4c0,2.8,1.1,3.6,2.4,3.6c1.3,0,2.2-0.7,3.1-1.7V84.1z"/>
	<path id="XMLID_14_" class="logostroke" d="M54.4,91.4v-0.8l1.3-0.1c0.3,0,0.3-0.1,0.3-0.4v-6.5c0-0.2-0.1-0.3-0.2-0.4l-1.1-0.3l0.1-0.8
		h2.4v8c0,0.3,0,0.3,0.3,0.4l1.3,0.1v0.8H54.4z M56.3,79.8c-0.6,0-1-0.3-1-1s0.4-1,1-1s1,0.3,1,1S56.9,79.8,56.3,79.8z"/>
	<path id="XMLID_17_" class="logostroke" d="M66.9,91.4l-0.1-1.2l-0.1,0c-0.9,0.8-1.8,1.5-3.3,1.5c-2.1,0-3.4-1.3-3.4-4.6
		c0-3.5,1.5-5.1,3.8-5.1c1.1,0,2.1,0.4,2.9,0.9v-3.7c0-0.2-0.1-0.3-0.2-0.4l-1.1-0.3l0.1-0.8h2.4v12.4c0,0.3,0,0.3,0.3,0.4l0.9,0.1
		v0.8H66.9z M66.7,84.1C66.1,83.5,65,83,63.8,83c-1.9,0-2.6,1.6-2.6,4c0,2.8,1.1,3.6,2.4,3.6c1.3,0,2.2-0.7,3.1-1.7V84.1z"/>
	<path id="XMLID_20_" class="logostroke" d="M75.7,95.2v-0.8l1.3-0.1c0.2,0,0.3-0.1,0.4-0.4l1.2-2.7l-3.2-7.8c-0.1-0.2-0.2-0.3-0.4-0.3
		l-0.7-0.2l0.2-0.8h3.5v0.8L76.6,83l2.6,6.7l2.7-6.7l-1.3-0.1l0.2-0.8h3.3v0.8L83.5,83c-0.2,0-0.4,0.1-0.5,0.3l-4.6,11l1.7,0.2v0.8
		H75.7z"/>
	<path id="XMLID_22_" class="logostroke" d="M84.9,86.7c0-2.8,1.4-4.8,4.4-4.8c3,0,4.2,2,4.2,4.7c0,3-1.3,5-4.3,5
		C86.1,91.6,84.9,89.6,84.9,86.7z M92.2,86.7c0-2.5-0.9-3.7-2.9-3.7c-2,0-3.1,1.3-3.1,3.7s1,3.9,3.1,3.9
		C91.2,90.6,92.2,89.3,92.2,86.7z"/>
	<path id="XMLID_25_" class="logostroke" d="M102.8,91.4l-0.2-1.3l0,0c-0.8,0.7-2,1.6-3.6,1.6c-2,0-2.6-1.3-2.6-3.3v-4.7
		c0-0.3,0-0.4-0.3-0.4l-1-0.3l0.1-0.8h2.3v5.8c0,1.8,0.3,2.6,1.6,2.6c1.4,0,2.6-1,3.3-1.9v-5.1c0-0.3,0-0.4-0.3-0.4l-1-0.3l0.1-0.8
		h2.4v8c0,0.3,0.1,0.4,0.2,0.4l1,0.1v0.8H102.8z"/>
	<path id="XMLID_27_" class="logostroke" d="M106.6,91.4v-0.8l0.9-0.1c0.3,0,0.3-0.1,0.3-0.4v-6.5c0-0.2-0.1-0.3-0.2-0.4l-1.1-0.3l0.1-0.8
		h2.1l0.2,1.2c0.6-0.6,1.5-1.3,2.8-1.3c0.4,0,0.9,0.1,1.2,0.2v2.5l-0.9-0.1l-0.2-1.4c0-0.1,0-0.2-0.2-0.2c-1,0-2,0.9-2.5,1.3v5.7
		c0,0.3,0,0.3,0.3,0.4l1.6,0.1v0.8H106.6z"/>
	<path id="XMLID_29_" class="logostroke" d="M125.3,91.4l-0.1-1.2l-0.1,0c-0.9,0.8-1.8,1.5-3.3,1.5c-2.1,0-3.4-1.3-3.4-4.6
		c0-3.5,1.5-5.1,3.8-5.1c1.1,0,2.1,0.4,2.9,0.9v-3.7c0-0.2-0.1-0.3-0.2-0.4l-1.1-0.3l0.1-0.8h2.4v12.4c0,0.3,0,0.3,0.3,0.4l0.9,0.1
		v0.8H125.3z M125.1,84.1c-0.6-0.6-1.7-1.2-2.8-1.2c-1.9,0-2.6,1.6-2.6,4c0,2.8,1.1,3.6,2.4,3.6c1.3,0,2.2-0.7,3.1-1.7V84.1z"/>
	<path id="XMLID_32_" class="logostroke" d="M135.3,91.4l-0.2-1.2l-0.1,0c-1,0.9-2,1.5-3.4,1.5c-2.3,0-2.5-1.6-2.5-2.4
		c0-1.8,1.1-2.6,3.3-2.8l2.6-0.2v-1c0-1.5-0.3-2.2-2.1-2.2c-1.2,0-2.1,0-2.2,1.5l-1.2-0.1c0-2.1,2-2.4,3.3-2.4
		c2.5,0,3.3,0.7,3.3,3.2v5c0,0.3,0,0.3,0.3,0.4l0.9,0.1v0.8H135.3z M135,87.1l-2.4,0.2c-1.7,0.2-2.2,0.7-2.2,1.7
		c0,1.1,0.5,1.5,1.5,1.5c1.3,0,2.4-0.8,3.1-1.7V87.1z"/>
	<path id="XMLID_35_" class="logostroke" d="M139,95.2v-0.8l1.3-0.1c0.2,0,0.3-0.1,0.4-0.4l1.2-2.7l-3.2-7.8c-0.1-0.2-0.2-0.3-0.4-0.3
		l-0.7-0.2l0.2-0.8h3.5v0.8l-1.2,0.1l2.6,6.7l2.7-6.7l-1.3-0.1l0.2-0.8h3.3v0.8l-0.6,0.1c-0.2,0-0.4,0.1-0.5,0.3l-4.6,11l1.7,0.2
		v0.8H139z"/>
	<path id="XMLID_37_" class="logostroke" d="M158,84.6l-0.2-1.2c0-0.1,0-0.2-0.2-0.2c-0.3-0.1-0.9-0.2-1.5-0.2c-1.5,0-2.1,0.7-2.1,1.5
		c0,1.1,1.1,1.4,2.3,1.7c1.4,0.4,2.9,0.8,2.9,2.7c0,2.1-1.7,2.7-3.5,2.7c-1.4,0-2.9-0.4-3.2-0.6v-2.2l0.9,0.1l0.2,1.2
		c0,0.1,0,0.2,0.2,0.2c0.3,0.1,1,0.3,2,0.3c1.3,0,2.2-0.5,2.2-1.6c0-1.2-1.1-1.5-2.2-1.8c-1.4-0.3-3-0.7-3-2.6c0-2,1.7-2.7,3.5-2.7
		c1.3,0,2.3,0.3,2.7,0.5v2.2L158,84.6z"/>
	<path id="XMLID_39_" class="logostroke" d="M160.8,86.7c0-2.8,1.4-4.8,4.4-4.8c3,0,4.2,2,4.2,4.7c0,3-1.3,5-4.3,5
		C162,91.6,160.8,89.6,160.8,86.7z M168.2,86.7c0-2.5-0.9-3.7-2.9-3.7c-2,0-3.1,1.3-3.1,3.7s1,3.9,3.1,3.9
		C167.1,90.6,168.2,89.3,168.2,86.7z"/>
	<path id="XMLID_42_" class="logostroke" d="M178.7,91.4l-0.2-1.3l0,0c-0.8,0.7-2,1.6-3.6,1.6c-2,0-2.6-1.3-2.6-3.3v-4.7
		c0-0.3,0-0.4-0.3-0.4l-1-0.3l0.1-0.8h2.3v5.8c0,1.8,0.3,2.6,1.6,2.6c1.4,0,2.6-1,3.3-1.9v-5.1c0-0.3,0-0.4-0.3-0.4l-1-0.3l0.1-0.8
		h2.4v8c0,0.3,0.1,0.4,0.2,0.4l1,0.1v0.8H178.7z"/>
	<path id="XMLID_44_" class="logostroke" d="M188.8,91.4v-0.8l0.9-0.1c0.3,0,0.3-0.1,0.3-0.3v-4.4c0-1.9-0.5-2.7-1.9-2.7
		c-1.3,0-2.6,0.9-3.2,1.4v5.7c0,0.3,0,0.3,0.3,0.4l1.1,0.1v0.8h-3.8v-0.8l0.9-0.1c0.3,0,0.3-0.1,0.3-0.4v-6.5c0-0.2-0.1-0.3-0.2-0.4
		l-1.1-0.3l0.1-0.8h2.1l0.1,1.1l0.1,0c0.9-0.7,2.1-1.3,3.5-1.3c2.1,0,2.8,1.3,2.8,3.5v4.7c0,0.3,0,0.3,0.3,0.4l1.1,0.1v0.8H188.8z"
		/>
	<path id="XMLID_46_" class="logostroke" d="M201,91.4l-0.1-1.2l-0.1,0c-0.9,0.8-1.8,1.5-3.3,1.5c-2.1,0-3.4-1.3-3.4-4.6
		c0-3.5,1.5-5.1,3.8-5.1c1.1,0,2.1,0.4,2.9,0.9v-3.7c0-0.2-0.1-0.3-0.2-0.4l-1.1-0.3l0.1-0.8h2.4v12.4c0,0.3,0,0.3,0.3,0.4l0.9,0.1
		v0.8H201z M200.7,84.1c-0.6-0.6-1.7-1.2-2.8-1.2c-1.9,0-2.6,1.6-2.6,4c0,2.8,1.1,3.6,2.4,3.6c1.3,0,2.2-0.7,3.1-1.7V84.1z"/>
	<path id="XMLID_49_" class="logostroke" d="M206.5,88.1v-3.2c2.1-0.2,3.8-0.8,3.8-3.1c0-2-1.1-2.5-2.7-2.5c-0.9,0-1.5,0.1-1.7,0.3
		c-0.1,0.1-0.1,0.1-0.2,0.4l-0.2,1l-0.9,0.1v-2.2c0.3-0.1,1.6-0.6,3.1-0.6c2.3,0,3.9,0.8,3.9,3.4c0,2.6-1.7,3.7-3.9,4.1v2.3H206.5z
		 M207.1,91.6c-0.7,0-1.1-0.3-1.1-1s0.4-1,1.1-1s1.1,0.3,1.1,1S207.8,91.6,207.1,91.6z"/>
</g>
</svg>