<svg id="tape" version="1.1" xmlns="http://www.w3.org/2000/svg" xmlns:xlink="http://www.w3.org/1999/xlink" x="0px" y="0px"
	 viewBox="0 0 447.2 341.9" style="enable-background:new 0 0 447.2 341.9;" xml:space="preserve">
<style type="text/css">
	.st0{opacity:0.4;fill:#353535;}
    .st1{display:none;}
    .st2{display:inline;fill:none;stroke:#000000;stroke-miterlimit:10;}
    .st3{display:inline;}
    .st4{fill:none;stroke:#000000;stroke-miterlimit:10;}
    .st5{font-family:'ProximaNova-Semibold';}
    .st6{font-size:6px;}
    .st7{font-family:'ProximaNova-Bold';}
    .st8{font-size:8px;}
    .st9{font-size:20px;}
    .st10{font-family:'ProximaNova-Extrabld';}
    .st11{display:inline;fill:none;stroke:#000000;stroke-width:3;stroke-miterlimit:10;}
    .st12{fill:none;stroke:#262626;stroke-width:2;stroke-miterlimit:10;}
    .st13{fill:#353535;stroke:#262626;stroke-width:2;stroke-miterlimit:10;}
    .st14{fill:#DBDCDB;stroke:#262626;stroke-width:2;stroke-miterlimit:10;}
    .st15{fill:#C1C0C0;stroke:#353535;stroke-linecap:round;stroke-linejoin:round;stroke-miterlimit:10;}
    .st16{clip-path:url(#XMLID_238_);}
    .st17{fill:#4B4B56;stroke:#353535;stroke-width:3;stroke-miterlimit:10;}
    .st18{clip-path:url(#XMLID_240_);fill:#494848;}
    .st19{clip-path:url(#XMLID_240_);fill:#EA5851;}
    .st20{fill:#4B4B56;stroke:#353535;stroke-width:2;stroke-miterlimit:10;}
    .st21{fill:#4B4B56;}
    .st22{fill:#353535;}
    .st23{fill:#4B4B56;stroke:#353535;stroke-miterlimit:10;}
    .st24{fill:#EA5851;}
    .st25{fill:#FFFFFF;}
    .st26{fill:none;stroke:#353535;stroke-width:3;stroke-miterlimit:10;}
    .st27{fill:none;stroke:#353535;stroke-width:2;stroke-miterlimit:10;}
    .st28{fill:none;stroke:#353535;stroke-miterlimit:10;}
</style>
<g id="Calque_1">
	<ellipse id="XMLID_100_" class="st0" cx="226.4" cy="334.9" rx="149.2" ry="7"/>
</g>
<g id="blueprint" class="st1">
	<rect id="XMLID_4_" x="30.5" y="32.5" class="st2" width="386.2" height="242.9"/>
	<rect id="XMLID_7_" x="26.8" y="186.8" class="st2" width="393.5" height="73.7"/>
	<rect id="XMLID_10_" x="51.5" y="180.3" class="st2" width="344.2" height="28.8"/>
	<rect id="XMLID_14_" x="51.5" y="54.7" class="st2" width="344.2" height="9"/>
	<rect id="XMLID_32_" x="51.5" y="109.9" class="st2" width="344.2" height="70.4"/>
	<rect id="XMLID_5_" x="51.5" y="54.7" class="st2" width="344.2" height="154.4"/>
	<rect id="XMLID_6_" x="107.8" y="109.9" class="st2" width="231.5" height="70.4"/>
	<rect id="XMLID_15_" x="176.8" y="121.9" class="st2" width="93.7" height="47.8"/>
	<polygon id="XMLID_9_" class="st2" points="364.1,280.4 83.1,280.4 95.1,223.7 352.1,223.7 	"/>
	<circle id="XMLID_8_" class="st2" cx="42.1" cy="43.4" r="6"/>
	<circle id="XMLID_11_" class="st2" cx="42.1" cy="265.4" r="6"/>
	<circle id="XMLID_13_" class="st2" cx="405.1" cy="43.4" r="6"/>
	<circle id="XMLID_12_" class="st2" cx="405.1" cy="265.4" r="6"/>
	<g id="XMLID_38_" class="st3">
		<circle id="XMLID_18_" class="st4" cx="142.8" cy="145.7" r="25.2"/>
		<circle id="XMLID_19_" class="st4" cx="142.8" cy="145.7" r="21.2"/>
		<circle id="XMLID_23_" class="st4" cx="142.8" cy="145.7" r="40.1"/>
		<circle id="XMLID_25_" class="st4" cx="142.8" cy="145.7" r="62.1"/>
		<g id="XMLID_22_">
			<path id="XMLID_24_" class="st4" d="M161.7,145.7h-2.3c0,3-0.8,5.8-2.2,8.2l2,1.2"/>
			<path id="XMLID_21_" class="st4" d="M151.1,131.4l1.2-2L151.1,131.4c2.5,1.4,4.6,3.5,6,6l2-1.2"/>
			<path id="XMLID_20_" class="st4" d="M142.8,126.8v2.3c-3,0-5.8,0.8-8.2,2.2l-1.2-2l1.2,2l-1.2-2c-2.9,1.7-5.2,4-6.9,6.9l2,1.2
				c-1.4,2.4-2.2,5.2-2.2,8.2H124c0,3.4,0.9,6.6,2.5,9.4l2-1.2l-2,1.2l2-1.2c1.4,2.5,3.5,4.6,6,6l-1.2,2l1.2-2l-1.2,2
				c2.8,1.6,6,2.5,9.4,2.5v-2.3v2.3v-2.3c3,0,5.8-0.8,8.2-2.2l1.2,2l-1.2-2l1.2,2c2.9-1.7,5.2-4,6.9-6.9l-2-1.2
				c1.4-2.4,2.2-5.2,2.2-8.2h2.3c0-3.4-0.9-6.6-2.5-9.4l-2,1.2c-1.4-2.5-3.5-4.6-6-6l1.2-2C149.5,127.8,146.3,126.8,142.8,126.8v2.3
				"/>
		</g>
	</g>
	<circle id="XMLID_48_" class="st2" cx="304.3" cy="145.7" r="25.2"/>
	<circle id="XMLID_47_" class="st2" cx="304.3" cy="145.7" r="21.2"/>
	<circle id="XMLID_46_" class="st2" cx="304.3" cy="145.7" r="40.1"/>
	<circle id="XMLID_45_" class="st2" cx="304.3" cy="145.7" r="78"/>
	<g id="XMLID_41_" class="st3">
		<path id="XMLID_44_" class="st4" d="M285.5,145.7h2.3c0,3,0.8,5.8,2.2,8.2l-2,1.2"/>
		<path id="XMLID_43_" class="st4" d="M296.1,131.4l-1.2-2L296.1,131.4c-2.5,1.4-4.6,3.5-6,6l-2-1.2"/>
		<path id="XMLID_42_" class="st4" d="M304.3,126.8v2.3c3,0,5.8,0.8,8.2,2.2l1.2-2l-1.2,2l1.2-2c2.9,1.7,5.2,4,6.9,6.9l-2,1.2
			c1.4,2.4,2.2,5.2,2.2,8.2h2.3c0,3.4-0.9,6.6-2.5,9.4l-2-1.2l2,1.2l-2-1.2c-1.4,2.5-3.5,4.6-6,6l1.2,2l-1.2-2l1.2,2
			c-2.8,1.6-6,2.5-9.4,2.5v-2.3v2.3v-2.3c-3,0-5.8-0.8-8.2-2.2l-1.2,2l1.2-2l-1.2,2c-2.9-1.7-5.2-4-6.9-6.9l2-1.2
			c-1.4-2.4-2.2-5.2-2.2-8.2h-2.3c0-3.4,0.9-6.6,2.5-9.4l2,1.2c1.4-2.5,3.5-4.6,6-6l-1.2-2C297.7,127.8,300.9,126.8,304.3,126.8v2.3
			"/>
	</g>
	<circle id="XMLID_26_" class="st2" cx="130.6" cy="264.9" r="9.5"/>
	<circle id="XMLID_28_" class="st2" cx="168.6" cy="261.5" r="9.5"/>
	<circle id="XMLID_37_" class="st2" cx="316.6" cy="264.9" r="9.5"/>
	<circle id="XMLID_36_" class="st2" cx="278.5" cy="261.5" r="9.5"/>
	<rect id="XMLID_27_" x="279.8" y="181.6" class="st2" width="54.7" height="26.2"/>
	<text id="XMLID_29_" transform="matrix(1 0 0 1 207.443 274.749)" class="st3 st5 st6">LIVEPIXELZ</text>
	<text id="XMLID_51_" transform="matrix(1 0 0 1 113.2254 206.0824)" class="st3 st7 st8">TYPE NORMAL</text>
	<text id="XMLID_52_" transform="matrix(1 0 0 1 285.0614 200.9157)" class="st3 st7 st9">D 90</text>
	<text id="XMLID_54_" transform="matrix(1 0 0 1 62.7108 88.0824)" class="st3 st7 st9">B</text>
	<rect id="XMLID_30_" x="59.1" y="70.6" class="st2" width="20.5" height="21.3"/>
	<rect id="XMLID_31_" x="343.1" y="90.2" class="st2" width="7.7" height="7.7"/>
	<rect id="XMLID_33_" x="366.1" y="90.2" class="st2" width="7.7" height="7.7"/>
	<line id="XMLID_35_" class="st2" x1="51.5" y1="100.2" x2="395.7" y2="100.2"/>
	<text id="XMLID_39_" transform="matrix(1 0 0 1 330.221 95.7492)" class="st3 st10 st6">NR</text>
	<text id="XMLID_49_" transform="matrix(1 0 0 1 354.2399 95.7492)" class="st3 st10 st6">ON</text>
	<text id="XMLID_50_" transform="matrix(1 0 0 1 376.9242 95.7492)" class="st3 st10 st6">OFF</text>
	<line id="XMLID_40_" class="st11" x1="301.1" y1="185.7" x2="301.1" y2="202.7"/>
</g>
<g id="blueprint_-_copie">
	<g id="left_tape" class="rotating">
		<circle id="XMLID_79_" class="st12" cx="304.3" cy="145.7" r="25.2"/>
		<circle id="XMLID_78_" class="st12" cx="304.3" cy="145.7" r="21.2"/>
		<circle id="XMLID_53_" class="st12" cx="304.3" cy="145.7" r="21.2"/>
		<circle id="XMLID_77_" class="st12" cx="304.3" cy="145.7" r="40.1"/>
		<path id="XMLID_81_" class="st13" d="M304.3,67.7c-43.1,0-78,34.9-78,78c0,43.1,34.9,78,78,78s78-34.9,78-78
			C382.3,102.6,347.4,67.7,304.3,67.7z M304.3,182.4c-20.3,0-36.8-16.5-36.8-36.8c0-20.3,16.5-36.8,36.8-36.8s36.8,16.5,36.8,36.8
			C341.1,166,324.6,182.4,304.3,182.4z"/>
		<path id="XMLID_84_" class="st14" d="M304.3,121.9c-13.1,0-23.8,10.6-23.8,23.8c0,13.1,10.6,23.8,23.8,23.8s23.8-10.6,23.8-23.8
			C328.1,132.5,317.5,121.9,304.3,121.9z M304.3,184.7c-21.5,0-39-17.5-39-39c0-21.5,17.5-39,39-39s39,17.5,39,39
			C343.3,167.2,325.9,184.7,304.3,184.7z"/>
		<path id="XMLID_75_" class="st15" d="M304.3,120.4c-13.9,0-25.2,11.3-25.2,25.2s11.3,25.2,25.2,25.2s25.2-11.3,25.2-25.2
			S318.3,120.4,304.3,120.4z M320.6,155.1l-2-1.2c-1.4,2.5-3.5,4.6-6,6l1.2,2c-2.8,1.6-6,2.5-9.4,2.5v-2.3c-3,0-5.8-0.8-8.2-2.2
			l-1.2,2c-2.9-1.7-5.2-4-6.9-6.9l2-1.2c-1.4-2.4-2.2-5.2-2.2-8.2h-2.3c0-3.4,0.9-6.6,2.5-9.4l2,1.2c1.4-2.5,3.5-4.6,6-6l-1.2-2
			c2.8-1.6,6-2.5,9.4-2.5v2.3c3,0,5.8,0.8,8.2,2.2l1.2-2c2.9,1.7,5.2,4,6.9,6.9l-2,1.2c1.4,2.4,2.2,5.2,2.2,8.2h2.3
			C323.2,149.1,322.2,152.3,320.6,155.1z"/>
	</g>
	<g id="right_tape" class="rotating">
		<circle id="XMLID_210_" class="st12" cx="142.8" cy="145.7" r="25.2"/>
		<circle id="XMLID_209_" class="st12" cx="142.8" cy="145.7" r="21.2"/>
		<circle id="XMLID_208_" class="st12" cx="142.8" cy="145.7" r="21.2"/>
		<circle id="XMLID_207_" class="st12" cx="142.8" cy="145.7" r="40.1"/>
		<path id="XMLID_204_" class="st13" d="M81.6,145.7c0,33.8,27.4,61.3,61.3,61.3s61.3-27.4,61.3-61.3c0-33.8-27.4-61.3-61.3-61.3
			S81.6,111.8,81.6,145.7z M106.1,145.7c0-20.3,16.5-36.8,36.8-36.8s36.8,16.5,36.8,36.8c0,20.3-16.5,36.8-36.8,36.8
			S106.1,166,106.1,145.7z"/>
		<path id="XMLID_195_" class="st14" d="M119.1,145.7c0,13.1,10.6,23.8,23.8,23.8s23.8-10.6,23.8-23.8c0-13.1-10.6-23.8-23.8-23.8
			S119.1,132.5,119.1,145.7z M103.8,145.7c0-21.5,17.5-39,39-39s39,17.5,39,39c0,21.5-17.5,39-39,39S103.8,167.2,103.8,145.7z"/>
		<path id="XMLID_186_" class="st15" d="M117.6,145.7c0,13.9,11.3,25.2,25.2,25.2s25.2-11.3,25.2-25.2s-11.3-25.2-25.2-25.2
			S117.6,131.7,117.6,145.7z M124,145.7h2.3c0-3,0.8-5.8,2.2-8.2l-2-1.2c1.7-2.9,4-5.2,6.9-6.9l1.2,2c2.4-1.4,5.2-2.2,8.2-2.2v-2.3
			c3.4,0,6.6,0.9,9.4,2.5l-1.2,2c2.5,1.4,4.6,3.5,6,6l2-1.2c1.6,2.8,2.5,6,2.5,9.4h-2.3c0,3-0.8,5.8-2.2,8.2l2,1.2
			c-1.7,2.9-4,5.2-6.9,6.9l-1.2-2c-2.4,1.4-5.2,2.2-8.2,2.2v2.3c-3.4,0-6.6-0.9-9.4-2.5l1.2-2c-2.5-1.4-4.6-3.5-6-6l-2,1.2
			C124.9,152.3,124,149.1,124,145.7z"/>
	</g>
	<g id="XMLID_83_">
		<defs>
			<path id="XMLID_200_" d="M0,0v306.9h447.2V0H0z M176.8,121.9h93.7v47.8h-93.7V121.9z M130.6,274.4c-5.2,0-9.5-4.3-9.5-9.5
				s4.3-9.5,9.5-9.5s9.5,4.3,9.5,9.5S135.8,274.4,130.6,274.4z M142.8,166.9c-11.7,0-21.2-9.5-21.2-21.2c0-11.7,9.5-21.2,21.2-21.2
				s21.2,9.5,21.2,21.2C164.1,157.4,154.6,166.9,142.8,166.9z M168.6,271c-5.2,0-9.5-4.3-9.5-9.5s4.3-9.5,9.5-9.5s9.5,4.3,9.5,9.5
				S173.9,271,168.6,271z M278.5,271c-5.2,0-9.5-4.3-9.5-9.5s4.3-9.5,9.5-9.5s9.5,4.3,9.5,9.5S283.8,271,278.5,271z M283.1,145.7
				c0-11.7,9.5-21.2,21.2-21.2s21.2,9.5,21.2,21.2c0,11.7-9.5,21.2-21.2,21.2S283.1,157.4,283.1,145.7z M316.6,274.4
				c-5.2,0-9.5-4.3-9.5-9.5s4.3-9.5,9.5-9.5s9.5,4.3,9.5,9.5S321.8,274.4,316.6,274.4z"/>
		</defs>
		<clipPath id="XMLID_238_">
			<use xlink:href="#XMLID_200_"  style="overflow:visible;"/>
		</clipPath>
		<g id="XMLID_76_" class="st16">
			<g id="XMLID_64_">
				<g id="XMLID_66_">
					<path id="XMLID_102_" class="st17" d="M418.4,260.5H28.8c-1.1,0-2-0.9-2-2v-69.7c0-1.1,0.9-2,2-2h389.5c1.1,0,2,0.9,2,2v69.7
						C420.4,259.6,419.5,260.5,418.4,260.5z"/>
					<path id="XMLID_103_" class="st4" d="M406.7,277H40.5c-5.5,0-10-4.5-10-10V42.5c0-5.5,4.5-10,10-10h366.2c5.5,0,10,4.5,10,10
						V267C416.7,272.6,412.2,277,406.7,277z"/>
					<path id="XMLID_119_" class="st17" d="M406.7,276.8H40.5c-5.5,0-10-4.5-10-10V42.3c0-5.5,4.5-10,10-10h366.2
						c5.5,0,10,4.5,10,10v224.5C416.7,272.3,412.2,276.8,406.7,276.8z"/>
					<rect id="XMLID_99_" x="51.5" y="109.9" class="st4" width="344.2" height="70.4"/>
					<path id="XMLID_98_" class="st4" d="M391.7,209.1H55.5c-2.2,0-4-1.8-4-4V58.7c0-2.2,1.8-4,4-4h336.2c2.2,0,4,1.8,4,4v146.4
						C395.7,207.3,393.9,209.1,391.7,209.1z"/>
					<g id="XMLID_118_">
						<defs>
							<path id="XMLID_117_" d="M391.7,209.1H55.5c-2.2,0-4-1.8-4-4V58.7c0-2.2,1.8-4,4-4h336.2c2.2,0,4,1.8,4,4v146.4
								C395.7,207.3,393.9,209.1,391.7,209.1z"/>
						</defs>
						<use xlink:href="#XMLID_117_"  style="overflow:visible;fill:#FFFFFF;"/>
						<clipPath id="XMLID_239_">
							<use xlink:href="#XMLID_117_"  style="overflow:visible;"/>
						</clipPath>
					</g>
					<g id="XMLID_122_">
						<defs>
							<path id="XMLID_120_" d="M391.7,209.1H55.5c-2.2,0-4-1.8-4-4V58.7c0-2.2,1.8-4,4-4h336.2c2.2,0,4,1.8,4,4v146.4
								C395.7,207.3,393.9,209.1,391.7,209.1z"/>
						</defs>
						<clipPath id="XMLID_240_">
							<use xlink:href="#XMLID_120_"  style="overflow:visible;"/>
						</clipPath>
						<rect id="XMLID_101_" x="51.5" y="180.3" class="st18" width="344.2" height="28.8"/>
						<rect id="XMLID_121_" x="51.5" y="54.7" class="st19" width="344.2" height="9"/>
						<use xlink:href="#XMLID_120_"  style="overflow:visible;fill:none;stroke:#353535;stroke-width:2;stroke-miterlimit:10;"/>
					</g>
					<path id="XMLID_97_" class="st20" d="M335.4,180.3H111.8c-2.2,0-4-1.8-4-4v-62.4c0-2.2,1.8-4,4-4h223.5c2.2,0,4,1.8,4,4v62.4
						C339.4,178.5,337.6,180.3,335.4,180.3z"/>
					<rect id="XMLID_96_" x="176.8" y="121.9" class="st4" width="93.7" height="47.8"/>
					<g id="XMLID_95_">
						<path id="XMLID_231_" class="st21" d="M86.1,279.9c-1.2,0-2.4-0.5-3.1-1.4c-0.7-0.9-1-2.1-0.7-3.3L93,226.3
							c0.5-2.3,2.7-4.1,5.1-4.1h251c2.4,0,4.6,1.8,5.1,4.1l10.7,48.9c0.3,1.2,0,2.4-0.7,3.3s-1.9,1.4-3.1,1.4H86.1z"/>
						<g id="XMLID_227_">
							<path id="XMLID_228_" class="st22" d="M349.1,223.7c1.7,0,3.3,1.3,3.6,2.9l10.7,48.9c0.4,1.6-0.7,2.9-2.4,2.9h-275
								c-1.6,0-2.7-1.3-2.4-2.9l10.7-48.9c0.4-1.6,2-2.9,3.6-2.9H349.1 M349.1,220.7h-251c-3,0-5.9,2.3-6.6,5.3l-10.7,48.9
								c-0.4,1.7,0,3.3,1,4.6c1,1.3,2.6,2,4.3,2h275c1.7,0,3.3-0.7,4.3-2c1-1.3,1.4-2.9,1-4.6l-10.7-48.9
								C355,223,352.1,220.7,349.1,220.7L349.1,220.7z"/>
						</g>
					</g>
					<circle id="XMLID_94_" class="st23" cx="42.1" cy="43.4" r="6"/>
					<circle id="XMLID_93_" class="st23" cx="42.1" cy="265.4" r="6"/>
					<circle id="XMLID_92_" class="st23" cx="405.1" cy="43.4" r="6"/>
					<circle id="XMLID_91_" class="st23" cx="405.1" cy="265.4" r="6"/>
					<rect id="XMLID_67_" x="279.8" y="181.6" class="st24" width="54.7" height="26.2"/>
					<g id="XMLID_65_">
						<path id="XMLID_154_" d="M207.8,274.7v-4h0.7v3.4h1.8v0.6H207.8z"/>
						<path id="XMLID_156_" d="M210.9,274.7v-4h0.7v4H210.9z"/>
						<path id="XMLID_158_" d="M213.6,274.7l-1.6-4h0.8l1.2,3.2l1.2-3.2h0.8l-1.6,4H213.6z"/>
						<path id="XMLID_160_" d="M216.5,274.7v-4h2.7v0.6h-2v1h2v0.6h-2v1.1h2v0.6H216.5z"/>
						<path id="XMLID_162_" d="M220,274.7v-4h1.8c0.8,0,1.3,0.6,1.3,1.3c0,0.7-0.5,1.2-1.3,1.2h-1.1v1.5H220z M222.3,272
							c0-0.4-0.3-0.6-0.7-0.6h-1v1.3h1C222,272.6,222.3,272.4,222.3,272z"/>
						<path id="XMLID_165_" d="M223.6,274.7v-4h0.7v4H223.6z"/>
						<path id="XMLID_167_" d="M227.8,274.7l-1.1-1.6l-1.1,1.6h-0.8l1.5-2.1l-1.4-1.9h0.8l1,1.5l1-1.5h0.8l-1.4,1.9l1.5,2.1H227.8z"
							/>
						<path id="XMLID_169_" d="M229.1,274.7v-4h2.7v0.6h-2v1h2v0.6h-2v1.1h2v0.6H229.1z"/>
						<path id="XMLID_171_" d="M232.5,274.7v-4h0.7v3.4h1.8v0.6H232.5z"/>
						<path id="XMLID_173_" d="M235.5,274.7v-0.6l2-2.8h-2v-0.6h3v0.6l-2.1,2.8h2.1v0.6H235.5z"/>
					</g>
					<g id="XMLID_63_">
						<path id="XMLID_130_" class="st25" d="M115,206.1v-4.3h-1.6v-1h4.3v1h-1.6v4.3H115z"/>
						<path id="XMLID_132_" class="st25" d="M119.9,206.1v-2.2l-2-3.2h1.3l1.3,2.1l1.3-2.1h1.3l-2,3.2v2.2H119.9z"/>
						<path id="XMLID_134_" class="st25" d="M123.6,206.1v-5.3h2.5c1.2,0,1.8,0.8,1.8,1.7c0,0.9-0.6,1.7-1.8,1.7h-1.4v1.9H123.6z
							 M126.7,202.5c0-0.4-0.3-0.7-0.8-0.7h-1.2v1.4h1.2C126.4,203.2,126.7,202.9,126.7,202.5z"/>
						<path id="XMLID_137_" class="st25" d="M128.6,206.1v-5.3h3.8v1h-2.6v1.1h2.6v1h-2.6v1.2h2.6v1H128.6z"/>
						<path id="XMLID_139_" class="st25" d="M139,206.1l-2.5-3.5v3.5h-1.1v-5.3h1.2l2.5,3.3v-3.3h1.1v5.3H139z"/>
						<path id="XMLID_141_" class="st25" d="M140.9,203.4c0-1.6,1.2-2.8,2.8-2.8c1.6,0,2.8,1.2,2.8,2.8c0,1.6-1.2,2.8-2.8,2.8
							C142,206.2,140.9,205,140.9,203.4z M145.3,203.4c0-1-0.6-1.8-1.6-1.8c-1,0-1.6,0.8-1.6,1.8c0,1,0.6,1.8,1.6,1.8
							C144.6,205.2,145.3,204.4,145.3,203.4z"/>
						<path id="XMLID_144_" class="st25" d="M150.3,206.1l-1-1.9h-0.8v1.9h-1.1v-5.3h2.5c1.1,0,1.8,0.7,1.8,1.7
							c0,0.9-0.6,1.4-1.2,1.6l1.2,2H150.3z M150.4,202.5c0-0.4-0.3-0.7-0.8-0.7h-1.2v1.4h1.2C150,203.2,150.4,202.9,150.4,202.5z"/>
						<path id="XMLID_147_" class="st25" d="M157,206.1v-3.8l-1.5,3.8H155l-1.5-3.8v3.8h-1.1v-5.3h1.6l1.3,3.3l1.3-3.3h1.6v5.3H157z
							"/>
						<path id="XMLID_149_" class="st25" d="M162.9,206.1l-0.3-0.9h-2.3l-0.3,0.9h-1.3l2.1-5.3h1.4l2.1,5.3H162.9z M161.4,201.9
							l-0.8,2.3h1.7L161.4,201.9z"/>
						<path id="XMLID_152_" class="st25" d="M164.6,206.1v-5.3h1.1v4.3h2.3v1H164.6z"/>
					</g>
					<path id="XMLID_175_" class="st25" d="M286.6,200.5V188h5c3.9,0,6.7,2.5,6.7,6.3c0,3.8-2.7,6.3-6.6,6.3H286.6z M295.5,194.2
						c0-2.2-1.4-3.9-3.9-3.9h-2.3v7.9h2.3C294.1,198.2,295.5,196.4,295.5,194.2z"/>
					<path id="XMLID_178_" class="st25" d="M307,199.4l1.2-2.1c0.7,0.6,1.4,1,2.5,1c2.1,0,3.1-1.8,3.1-3.5c0-0.1,0-0.2,0-0.3
						c-0.6,0.8-1.9,1.6-3.2,1.6c-2.3,0-4.3-1.4-4.3-4.1c0-2.4,1.9-4.3,4.8-4.3c3.8,0,5.4,2.9,5.4,6.5c0,3.8-2.1,6.5-5.9,6.5
						C309.2,200.7,307.9,200.2,307,199.4z M313.8,192.7c-0.1-1.2-0.8-2.5-2.5-2.5c-1.4,0-2.2,1-2.2,1.8c0,1.3,1.1,1.9,2.3,1.9
						C312.3,193.9,313.2,193.4,313.8,192.7z"/>
					<path id="XMLID_181_" class="st25" d="M317.8,194.3c0-3.2,1.6-6.5,5.2-6.5c3.6,0,5.2,3.2,5.2,6.5c0,3.2-1.6,6.5-5.2,6.5
						C319.4,200.7,317.8,197.5,317.8,194.3z M325.5,194.3c0-2.3-0.7-4.1-2.5-4.1c-1.8,0-2.5,1.8-2.5,4.1c0,2.3,0.7,4.1,2.5,4.1
						S325.5,196.6,325.5,194.3z"/>
					<rect id="XMLID_62_" x="59.1" y="70.6" class="st22" width="20.5" height="21.3"/>
					<rect id="XMLID_61_" x="343.1" y="90.2" class="st4" width="7.7" height="7.7"/>
					<rect id="XMLID_60_" x="366.1" y="90.2" class="st4" width="7.7" height="7.7"/>
					<line id="XMLID_58_" class="st4" x1="51.5" y1="100.2" x2="395.7" y2="100.2"/>
					<text id="XMLID_57_" transform="matrix(1 0 0 1 330.221 95.7492)" class="st10 st6">NR</text>
					<text id="XMLID_56_" transform="matrix(1 0 0 1 354.2399 95.7492)" class="st10 st6">ON</text>
					<text id="XMLID_55_" transform="matrix(1 0 0 1 376.9242 95.7492)" class="st10 st6">OFF</text>
					<rect id="XMLID_184_" x="301.1" y="186.2" class="st25" width="2" height="16"/>
					<g id="XMLID_123_">
						<path id="XMLID_124_" class="st25" d="M65.1,86.8V76h5.7c2.1,0,3.1,1.3,3.1,2.8c0,1.3-0.8,2.3-1.9,2.5
							c1.2,0.2,2.1,1.3,2.1,2.6c0,1.6-1.1,2.9-3.1,2.9H65.1z M71.5,79.2c0-0.7-0.5-1.1-1.3-1.1h-2.9v2.3h2.9
							C71,80.3,71.5,79.9,71.5,79.2z M71.7,83.6c0-0.7-0.5-1.2-1.4-1.2h-3v2.5h3C71.2,84.8,71.7,84.3,71.7,83.6z"/>
					</g>
				</g>
			</g>
		</g>
	</g>
	<g id="Calque_4">
		<circle id="XMLID_71_" class="st26" cx="130.6" cy="264.9" r="9.5"/>
		<circle id="XMLID_70_" class="st26" cx="168.6" cy="261.5" r="9.5"/>
		<circle id="XMLID_69_" class="st26" cx="316.6" cy="264.9" r="9.5"/>
		<circle id="XMLID_68_" class="st26" cx="278.5" cy="261.5" r="9.5"/>
	</g>
	<rect id="XMLID_82_" x="176.8" y="121.9" class="st27" width="93.7" height="47.8"/>
	<circle id="XMLID_185_" class="st28" cx="304.3" cy="145.7" r="21.2"/>
	<circle id="XMLID_125_" class="st28" cx="304.3" cy="145.7" r="25.2"/>
	<circle id="XMLID_187_" class="st28" cx="142.8" cy="145.7" r="21.2"/>
	<circle id="XMLID_87_" class="st28" cx="142.8" cy="145.7" r="25.2"/>
	<path id="XMLID_85_" class="st27" d="M391.7,209.1H55.5c-2.2,0-4-1.8-4-4V58.7c0-2.2,1.8-4,4-4h336.2c2.2,0,4,1.8,4,4v146.4
		C395.7,207.3,393.9,209.1,391.7,209.1z"/>
</g>
</svg>